<svg width="64px" height="64px" viewBox="-4 -6 42 42" version="1.1" xmlns="http://www.w3.org/2000/svg" xmlns:xlink="http://www.w3.org/1999/xlink">
    <title>chart</title>
    <g id="chart" fill="#000">
        <polyline id="Fill-164" points="10 24 8 24 8 14 4 14 4 24 2 24 2 12 10 12 10 24"></polyline>
        <polyline id="Fill-165" points="20 24 18 24 18 8 14 8 14 24 12 24 12 6 20 6 20 24"></polyline>
        <polyline id="Fill-166" points="30 24 28 24 28 2 24 2 24 24 22 24 22 0 30 0 30 24"></polyline>
        <polygon id="Fill-167" points="0 24 32 24 32 26 0 26"></polygon>
    </g>
</svg>