<svg width="192" height="192" viewBox="0 0 192 192" version="1.1" 
    xmlns="http://www.w3.org/2000/svg" 
    xmlns:xlink="http://www.w3.org/1999/xlink">
    <title>LivestrongLogo</title>
    <g id="Canvas" transform="translate(-6 0)">
        <g id="Component">
            <g id="Rectangle">
                <use xlink:href="#path0_fill" transform="translate(6 -4)" fill="#F4EAD5"/>
            </g>
            <g id="L">
                <use xlink:href="#path1_fill" transform="translate(37 -44)" fill="#E94E77"/>
            </g>
            <g id="S">
                <use xlink:href="#path2_fill" transform="matrix(6.12323e-17 -1 1 6.12323e-17 49 140)" fill="#E94E77"/>
            </g>
        </g>
    </g>
    <defs>
        <path id="path0_fill" d="M 0 0L 192 0L 192 192L 0 192L 0 0Z"/>
        <path id="path1_fill" d="M 6.93359 210L 6.93359 197.695L 22.8516 194.961L 22.8516 82.9492L 6.93359 80.2148L 6.93359 67.8125L 22.8516 67.8125L 42.0898 67.8125L 58.0078 67.8125L 58.0078 80.2148L 42.0898 82.9492L 42.0898 194.961L 91.5039 194.961L 92.9688 178.652L 109.375 178.652L 109.375 210L 6.93359 210Z"/>
        <path id="path2_fill" d="M 65.918 65.8828L 57.1875 65.8828L 55.0195 53.6953C 53.2617 52.2109 50.918 50.9805 47.9883 50.0039C 45.0586 49.0273 41.6602 48.5391 37.793 48.5391C 31.6602 48.5391 26.9531 49.8477 23.6719 52.4648C 20.3906 55.043 18.75 58.4219 18.75 62.6016C 18.75 66.3125 20.4102 69.418 23.7305 71.918C 27.0898 74.3789 32.5 76.5469 39.9609 78.4219C 48.9453 80.6484 55.7617 83.9297 60.4102 88.2656C 65.0977 92.6016 67.4414 97.9727 67.4414 104.379C 67.4414 111.254 64.6289 116.781 59.0039 120.961C 53.418 125.141 46.0938 127.23 37.0312 127.23C 30.4688 127.23 24.6289 126.156 19.5117 124.008C 14.4336 121.859 10.293 119.047 7.08984 115.57L 7.08984 99.6914L 15.7617 99.6914L 17.9883 111.938C 20.2148 113.773 22.8711 115.277 25.957 116.449C 29.043 117.621 32.7344 118.207 37.0312 118.207C 42.8516 118.207 47.4414 116.977 50.8008 114.516C 54.1992 112.055 55.8984 108.715 55.8984 104.496C 55.8984 100.59 54.4336 97.3281 51.5039 94.7109C 48.5742 92.0547 43.3984 89.8281 35.9766 88.0312C 26.9531 85.8828 19.9023 82.7188 14.8242 78.5391C 9.74609 74.3594 7.20703 69.1055 7.20703 62.7773C 7.20703 56.0977 10.0391 50.5508 15.7031 46.1367C 21.3672 41.6836 28.7305 39.457 37.793 39.457C 43.7695 39.457 49.1992 40.4922 54.082 42.5625C 59.0039 44.5938 62.9492 47.0742 65.918 50.0039L 65.918 65.8828Z"/>
    </defs>
</svg>