 <svg width="64px" height="64px" viewBox="-2 -2 32 32" version="1.1" xmlns="http://www.w3.org/2000/svg" xmlns:xlink="http://www.w3.org/1999/xlink">
    <title>pencil</title>
    <g id="Icon-Pencil" fill="#000">
        <path d="M0.722,28.278 L3.16,18.524 L18,3.685 L25.315,11 L10.476,25.84 L0.722,28.278 L0.722,28.278 Z M4.84,19.476 L3.278,25.722 L9.524,24.16 L22.685,11 L18,6.315 L4.84,19.476 L4.84,19.476 Z" id="Fill-168"></path>
        <path d="M8.851,25.287 C8.219,22.75 6.25,20.781 3.713,20.149 L4.164,18.344 C7.369,19.143 9.857,21.631 10.656,24.836 L8.851,25.287" id="Fill-169"></path>
        <polyline id="Fill-170" points="8.658 21.658 7.342 20.342 20.342 7.342 21.658 8.658 8.658 21.658"></polyline>
        <path d="M2,27 L4.902,26.275 C4.634,25.204 3.796,24.366 2.725,24.098 L2,27" id="Fill-171"></path>
        <path d="M26,10.315 L18.685,3 L21.599,0.086 L22.054,0.147 C25.586,0.618 28.382,3.414 28.853,6.946 L28.914,7.401 L26,10.315 L26,10.315 Z M21.315,3 L26,7.685 L26.934,6.751 C26.442,4.405 24.595,2.558 22.249,2.066 L21.315,3 L21.315,3 Z" id="Fill-172"></path>
    </g>
</svg>