<svg width="64px" height="64px" viewBox="-3 -3 40 40" version="1.1" xmlns="http://www.w3.org/2000/svg" xmlns:xlink="http://www.w3.org/1999/xlink">
    <title>play</title>
    <g id="play" fill="#000">
        <path d="M17,33.93 C7.665,33.93 0.07,26.335 0.07,17 C0.07,7.665 7.665,0.07 17,0.07 C26.335,0.07 33.93,7.665 33.93,17 C33.93,26.335 26.335,33.93 17,33.93 L17,33.93 Z M17,1.93 C8.69,1.93 1.93,8.69 1.93,17 C1.93,25.31 8.69,32.07 17,32.07 C25.31,32.07 32.07,25.31 32.07,17 C32.07,8.69 25.31,1.93 17,1.93 L17,1.93 Z" id="Fill-124"></path>
        <path d="M12,25.741 L12,8.259 L26.985,17 L12,25.741 L12,25.741 Z M14,11.741 L14,22.259 L23.015,17 L14,11.741 L14,11.741 Z" id="Fill-125"></path>    
    </g>
</svg>